<?xml version="1.0" encoding="UTF-8"?>
<svg width="56px" height="14px" viewBox="0 0 56 14" version="1.1" xmlns="http://www.w3.org/2000/svg" xmlns:xlink="http://www.w3.org/1999/xlink">
    <!-- Generator: Sketch 40.2 (33826) - http://www.bohemiancoding.com/sketch -->
    <title>logo-dark</title>
    <desc>Created with Sketch.</desc>
    <defs></defs>
    <g id="Page-1" stroke="none" stroke-width="1" fill="none" fill-rule="evenodd">
        <g id="shop" transform="translate(-95.000000, -1053.000000)" fill="#000000">
            <path d="M95,1066.76178 L99.0233263,1066.76178 L99.8645673,1062.01571 L104.655983,1062.01571 L105.204619,1058.8822 L100.413203,1058.8822 L100.77896,1056.81152 L106.832237,1056.81152 L107.380872,1053.69634 L97.3042687,1053.69634 L95,1066.76178 Z M105.815955,1066.76178 L109.546676,1066.76178 L111.284021,1056.88482 L107.553301,1056.88482 L105.815955,1066.76178 Z M107.717891,1055.98691 L111.448612,1055.98691 L111.942384,1053 L108.211663,1053 L107.717891,1055.98691 Z M114.181339,1066.96335 C115.059156,1066.96335 115.918684,1066.83508 116.778213,1066.59686 L117.290273,1063.79319 C116.906228,1063.84817 116.522183,1063.86649 116.138139,1063.86649 C115.754094,1063.86649 115.424913,1063.73822 115.424913,1063.29843 C115.424913,1063.24346 115.4432,1063.17016 115.4432,1063.09686 L116.046699,1059.70681 L117.948635,1059.70681 L118.405832,1057.12304 L116.503895,1057.12304 L116.961092,1054.50262 L113.230371,1054.50262 L112.773175,1057.12304 L111.675904,1057.12304 L111.218708,1059.70681 L112.315979,1059.70681 L111.547889,1064.08639 C111.493025,1064.32461 111.474738,1064.56283 111.474738,1064.78272 C111.474738,1066.45026 112.80975,1066.96335 114.181339,1066.96335 L114.181339,1066.96335 Z M117.773595,1066.76178 L121.504315,1066.76178 L122.491859,1061.15445 C122.619874,1060.42147 123.131934,1059.45026 123.991463,1059.45026 C124.668113,1059.45026 125.052158,1059.87173 125.052158,1060.42147 C125.052158,1060.56806 124.997294,1060.80628 124.979006,1060.95288 L123.954887,1066.76178 L127.685608,1066.76178 L128.910893,1059.68848 C128.947469,1059.50524 128.984045,1059.12042 128.984045,1058.91885 C128.984045,1057.41623 127.685608,1056.6466 126.332307,1056.6466 C124.942431,1056.6466 124.00975,1057.26963 123.058782,1058.27749 L123.022207,1058.27749 L123.808584,1053.69634 L120.059575,1053.69634 L117.773595,1066.76178 Z M131.844787,1066.98168 C133.234663,1066.98168 134.240495,1066.46859 135.191463,1065.46073 L135.228038,1065.46073 L135.008584,1066.76178 L138.666153,1066.76178 L140.403499,1056.88482 L136.672778,1056.88482 L135.685234,1062.47382 C135.557219,1063.20681 135.04516,1064.17801 134.185631,1064.17801 C133.508981,1064.17801 133.124936,1063.75654 133.124936,1063.20681 C133.124936,1063.06021 133.179799,1062.82199 133.198087,1062.67539 L134.222207,1056.88482 L130.491486,1056.88482 L129.2662,1063.93979 C129.229624,1064.12304 129.193049,1064.50785 129.193049,1064.70942 C129.193049,1066.21204 130.491486,1066.98168 131.844787,1066.98168 L131.844787,1066.98168 Z M145.934266,1067 C147.891066,1067 149.939305,1065.71728 150.305062,1063.68325 C150.506228,1062.49215 150.725682,1061.30105 150.926849,1060.10995 C150.981712,1059.83508 151,1059.56021 151,1059.26702 C151,1057.4712 149.829578,1056.66492 148.128808,1056.66492 C147.013249,1056.66492 145.897691,1057.25131 145.147889,1058.03927 L145.111313,1058.03927 L145.879403,1053.69634 L142.148682,1053.69634 L139.844413,1066.7801 L143.520271,1066.7801 L143.666573,1065.90052 L143.721437,1065.90052 C144.215209,1066.63351 145.05645,1067 145.934266,1067 L145.934266,1067 Z M145.257616,1064.48953 C144.635829,1064.48953 144.178633,1064.12304 144.178633,1063.48168 C144.178633,1063.39005 144.178633,1063.2801 144.196921,1063.18848 L144.599254,1060.91623 C144.763844,1060 145.184465,1059.37696 146.172008,1059.37696 C146.775507,1059.37696 147.122976,1059.79843 147.122976,1060.38482 C147.122976,1060.49476 147.104689,1060.60471 147.086401,1060.71466 L146.66578,1063.11518 C146.537765,1063.84817 146.062281,1064.48953 145.257616,1064.48953 L145.257616,1064.48953 Z" id="logo-dark"></path>
        </g>
    </g>
</svg>