<?xml version="1.0" encoding="UTF-8" standalone="no"?>
<svg width="64px" height="16px" viewBox="0 0 64 16" version="1.1" xmlns="http://www.w3.org/2000/svg" xmlns:xlink="http://www.w3.org/1999/xlink">
    <!-- Generator: Sketch 39.1 (31720) - http://www.bohemiancoding.com/sketch -->
    <title>logo</title>
    <desc>Created with Sketch.</desc>
    <defs></defs>
    <g id="Page-1" stroke="none" stroke-width="1" fill="none" fill-rule="evenodd">
        <g id="Home" transform="translate(-568.000000, -12.000000)" fill="#FFFFFF">
            <path d="M568,27.7277487 L572.598087,27.7277487 L573.559505,22.3036649 L579.035409,22.3036649 L579.662421,18.7225131 L574.186517,18.7225131 L574.604525,16.3560209 L581.522557,16.3560209 L582.149568,12.7958115 L570.63345,12.7958115 L568,27.7277487 Z M580.361092,27.7277487 L584.624773,27.7277487 L586.61031,16.4397906 L582.346629,16.4397906 L580.361092,27.7277487 Z M582.534733,15.4136126 L586.798414,15.4136126 L587.362725,12 L583.099044,12 L582.534733,15.4136126 Z M589.92153,27.9581152 C590.924749,27.9581152 591.907068,27.8115183 592.889387,27.539267 L593.474598,24.3350785 C593.035689,24.3979058 592.596781,24.4188482 592.157873,24.4188482 C591.718964,24.4188482 591.342757,24.2722513 591.342757,23.7696335 C591.342757,23.7068063 591.363658,23.6230366 591.363658,23.539267 L592.053371,19.6649215 L594.227012,19.6649215 L594.749522,16.7120419 L592.575881,16.7120419 L593.09839,13.7172775 L588.83471,13.7172775 L588.3122,16.7120419 L587.058176,16.7120419 L586.535666,19.6649215 L587.78969,19.6649215 L586.911873,24.6701571 C586.849172,24.9424084 586.828272,25.2146597 586.828272,25.4659686 C586.828272,27.3717277 588.354,27.9581152 589.92153,27.9581152 L589.92153,27.9581152 Z M594.026965,27.7277487 L598.290646,27.7277487 L599.419268,21.3193717 C599.56557,20.4816754 600.150781,19.3717277 601.1331,19.3717277 C601.906415,19.3717277 602.345323,19.8534031 602.345323,20.4816754 C602.345323,20.6492147 602.282622,20.921466 602.261721,21.0890052 L601.091299,27.7277487 L605.35498,27.7277487 L606.755307,19.6439791 C606.797108,19.434555 606.838908,18.9947644 606.838908,18.7643979 C606.838908,17.0471204 605.35498,16.1675393 603.808351,16.1675393 C602.219921,16.1675393 601.154,16.8795812 600.06718,18.0314136 L600.025379,18.0314136 L600.924096,12.7958115 L596.639515,12.7958115 L594.026965,27.7277487 Z M610.108327,27.9790576 C611.696758,27.9790576 612.846279,27.3926702 613.9331,26.2408377 L613.974901,26.2408377 L613.724096,27.7277487 L617.904175,27.7277487 L619.889713,16.4397906 L615.626032,16.4397906 L614.497411,22.8272251 C614.351108,23.6649215 613.765897,24.7748691 612.783578,24.7748691 C612.010264,24.7748691 611.571355,24.2931937 611.571355,23.6649215 C611.571355,23.4973822 611.634056,23.2251309 611.654957,23.0575916 L612.825379,16.4397906 L608.561698,16.4397906 L607.161372,24.5026178 C607.119571,24.7120419 607.07777,25.1518325 607.07777,25.382199 C607.07777,27.0994764 608.561698,27.9790576 610.108327,27.9790576 L610.108327,27.9790576 Z M626.21059,28 C628.446933,28 630.787777,26.5340314 631.205785,24.2094241 C631.435689,22.8481675 631.686494,21.486911 631.916398,20.1256545 C631.9791,19.8115183 632,19.4973822 632,19.1623037 C632,17.1099476 630.662375,16.1884817 628.718638,16.1884817 C627.443714,16.1884817 626.168789,16.8586387 625.311873,17.7591623 L625.270072,17.7591623 L626.147889,12.7958115 L621.884208,12.7958115 L619.250758,27.7486911 L623.451738,27.7486911 L623.618941,26.7434555 L623.681642,26.7434555 C624.245953,27.5811518 625.207371,28 626.21059,28 L626.21059,28 Z M625.437275,25.1308901 C624.726662,25.1308901 624.204152,24.7120419 624.204152,23.9790576 C624.204152,23.8743455 624.204152,23.7486911 624.225052,23.6439791 L624.684861,21.0471204 C624.872965,20 625.353674,19.2879581 626.482295,19.2879581 C627.172008,19.2879581 627.569116,19.7696335 627.569116,20.4397906 C627.569116,20.565445 627.548216,20.6910995 627.527315,20.8167539 L627.046606,23.5602094 C626.900303,24.3979058 626.356893,25.1308901 625.437275,25.1308901 L625.437275,25.1308901 Z" id="logo"></path>
        </g>
    </g>
</svg>